<mxfile host="app.diagrams.net" agent="Mozilla/5.0 (Windows NT 10.0; Win64; x64) AppleWebKit/537.36 (KHTML, like Gecko) Chrome/138.0.0.0 Safari/537.36" version="28.0.6">
  <diagram name="Page-1" id="XljcWak_J2f52a9qYfri">
    <mxGraphModel dx="872" dy="483" grid="1" gridSize="10" guides="1" tooltips="1" connect="1" arrows="1" fold="1" page="1" pageScale="1" pageWidth="827" pageHeight="1169" math="0" shadow="0">
      <root>
        <mxCell id="0" />
        <mxCell id="1" parent="0" />
        <mxCell id="ccz9uo29Jq3HJLHvWatY-1" value="" style="rounded=0;whiteSpace=wrap;html=1;" vertex="1" parent="1">
          <mxGeometry x="300" y="10" width="120" height="60" as="geometry" />
        </mxCell>
        <mxCell id="ccz9uo29Jq3HJLHvWatY-2" value="" style="endArrow=classic;html=1;rounded=0;" edge="1" parent="1">
          <mxGeometry width="50" height="50" relative="1" as="geometry">
            <mxPoint x="360" y="70" as="sourcePoint" />
            <mxPoint x="360" y="130" as="targetPoint" />
          </mxGeometry>
        </mxCell>
        <mxCell id="ccz9uo29Jq3HJLHvWatY-3" value="wifi signal" style="text;strokeColor=none;align=center;fillColor=none;html=1;verticalAlign=middle;whiteSpace=wrap;rounded=0;" vertex="1" parent="1">
          <mxGeometry x="330" y="25" width="60" height="30" as="geometry" />
        </mxCell>
        <mxCell id="ccz9uo29Jq3HJLHvWatY-4" value="" style="whiteSpace=wrap;html=1;aspect=fixed;" vertex="1" parent="1">
          <mxGeometry x="250" y="130" width="220" height="220" as="geometry" />
        </mxCell>
        <mxCell id="ccz9uo29Jq3HJLHvWatY-5" value="esp32 module" style="text;strokeColor=none;align=center;fillColor=none;html=1;verticalAlign=middle;whiteSpace=wrap;rounded=0;" vertex="1" parent="1">
          <mxGeometry x="315" y="130" width="90" height="50" as="geometry" />
        </mxCell>
        <mxCell id="ccz9uo29Jq3HJLHvWatY-6" value="" style="rounded=1;whiteSpace=wrap;html=1;" vertex="1" parent="1">
          <mxGeometry x="285" y="180" width="160" height="70" as="geometry" />
        </mxCell>
        <mxCell id="ccz9uo29Jq3HJLHvWatY-7" value="deauthenticatino tool" style="text;strokeColor=none;align=center;fillColor=none;html=1;verticalAlign=middle;whiteSpace=wrap;rounded=0;" vertex="1" parent="1">
          <mxGeometry x="315" y="190" width="90" height="40" as="geometry" />
        </mxCell>
        <mxCell id="ccz9uo29Jq3HJLHvWatY-9" value="" style="rounded=1;whiteSpace=wrap;html=1;" vertex="1" parent="1">
          <mxGeometry x="285" y="260" width="160" height="70" as="geometry" />
        </mxCell>
        <mxCell id="ccz9uo29Jq3HJLHvWatY-10" value="display output" style="text;strokeColor=none;align=center;fillColor=none;html=1;verticalAlign=middle;whiteSpace=wrap;rounded=0;" vertex="1" parent="1">
          <mxGeometry x="325" y="270" width="90" height="40" as="geometry" />
        </mxCell>
        <mxCell id="ccz9uo29Jq3HJLHvWatY-11" value="" style="whiteSpace=wrap;html=1;aspect=fixed;" vertex="1" parent="1">
          <mxGeometry x="255" y="420" width="220" height="220" as="geometry" />
        </mxCell>
        <mxCell id="ccz9uo29Jq3HJLHvWatY-12" value="esp32 module" style="text;strokeColor=none;align=center;fillColor=none;html=1;verticalAlign=middle;whiteSpace=wrap;rounded=0;" vertex="1" parent="1">
          <mxGeometry x="325" y="420" width="90" height="50" as="geometry" />
        </mxCell>
        <mxCell id="ccz9uo29Jq3HJLHvWatY-13" value="" style="rounded=1;whiteSpace=wrap;html=1;" vertex="1" parent="1">
          <mxGeometry x="285" y="470" width="160" height="70" as="geometry" />
        </mxCell>
        <mxCell id="ccz9uo29Jq3HJLHvWatY-14" value="deauthenticatino tool" style="text;strokeColor=none;align=center;fillColor=none;html=1;verticalAlign=middle;whiteSpace=wrap;rounded=0;" vertex="1" parent="1">
          <mxGeometry x="324" y="480" width="90" height="40" as="geometry" />
        </mxCell>
        <mxCell id="ccz9uo29Jq3HJLHvWatY-15" value="" style="rounded=1;whiteSpace=wrap;html=1;" vertex="1" parent="1">
          <mxGeometry x="285" y="550" width="155" height="70" as="geometry" />
        </mxCell>
        <mxCell id="ccz9uo29Jq3HJLHvWatY-16" value="display output" style="text;strokeColor=none;align=center;fillColor=none;html=1;verticalAlign=middle;whiteSpace=wrap;rounded=0;" vertex="1" parent="1">
          <mxGeometry x="320" y="560" width="90" height="40" as="geometry" />
        </mxCell>
        <mxCell id="ccz9uo29Jq3HJLHvWatY-17" value="" style="endArrow=classic;html=1;rounded=0;" edge="1" parent="1">
          <mxGeometry width="50" height="50" relative="1" as="geometry">
            <mxPoint x="369.5" y="350" as="sourcePoint" />
            <mxPoint x="369.5" y="410" as="targetPoint" />
          </mxGeometry>
        </mxCell>
        <mxCell id="ccz9uo29Jq3HJLHvWatY-18" value="wifi communication" style="text;strokeColor=none;align=center;fillColor=none;html=1;verticalAlign=middle;whiteSpace=wrap;rounded=0;" vertex="1" parent="1">
          <mxGeometry x="390" y="360" width="90" height="50" as="geometry" />
        </mxCell>
        <mxCell id="ccz9uo29Jq3HJLHvWatY-20" value="user visualization&lt;br&gt;logs, graphs" style="rounded=1;whiteSpace=wrap;html=1;" vertex="1" parent="1">
          <mxGeometry x="285" y="710" width="160" height="70" as="geometry" />
        </mxCell>
        <mxCell id="ccz9uo29Jq3HJLHvWatY-21" value="" style="endArrow=classic;html=1;rounded=0;" edge="1" parent="1">
          <mxGeometry width="50" height="50" relative="1" as="geometry">
            <mxPoint x="368.5" y="650" as="sourcePoint" />
            <mxPoint x="368.5" y="710" as="targetPoint" />
          </mxGeometry>
        </mxCell>
      </root>
    </mxGraphModel>
  </diagram>
</mxfile>
